<svg width="90" height="90" viewBox="0 0 90 90" fill="none" xmlns="http://www.w3.org/2000/svg">
<path fill-rule="evenodd" clip-rule="evenodd" d="M41.3927 0.120775C22.6938 1.68197 6.86096 14.6218 1.69944 32.5611C0.299725 37.4262 -0.124261 40.9756 0.0299709 46.5377C0.148361 50.8018 0.506387 53.2606 1.57324 57.1314C3.98051 65.8656 9.0122 73.724 15.8849 79.484C22.1633 84.7456 28.8517 87.8981 37.057 89.4634C39.7758 89.982 40.1704 90.0083 45.0641 89.9986C49.8775 89.9889 50.3846 89.9544 52.8805 89.4652C62.2412 87.6308 69.6626 83.8036 76.2075 77.4359C78.9411 74.7764 80.4192 73.0074 82.4682 69.9439C86.068 64.5622 88.4347 58.3847 89.5131 51.5552C89.9869 48.5566 89.9869 41.7284 89.5133 38.5443C86.7806 20.1667 72.9249 5.14083 55.0451 1.16455C50.5735 0.17015 45.4717 -0.219907 41.3927 0.120775ZM43.737 4.9336C43.6848 5.16962 43.4634 6.6923 43.2451 8.31755C43.0269 9.9428 42.5148 13.6318 42.1074 16.5153C41.6998 19.3988 41.0137 24.3317 40.5828 27.4774C38.871 39.9713 38.6531 41.4021 38.4312 41.6043C38.3046 41.7197 34.3066 44.851 29.5471 48.5629C24.7875 52.2745 19.683 56.2579 18.2038 57.4145C10.8887 63.1341 9.29835 64.3671 9.23735 64.3671C9.20093 64.3671 8.69858 63.3163 8.12093 62.0317C2.92833 50.4848 3.23795 37.3659 8.96149 26.4288C14.9405 15.0033 25.685 7.1529 38.165 5.09108C40.6221 4.68539 41.4523 4.58854 42.923 4.53668C43.7736 4.50675 43.826 4.5323 43.737 4.9336ZM51.832 5.0966C67.515 7.73418 80.3471 19.6356 84.2199 35.1358C85.163 38.9101 85.4192 41.0252 85.4171 45.0167C85.4135 51.5108 84.2475 56.7637 81.5347 62.5084C81.1013 63.4259 80.6941 64.1765 80.6298 64.1765C80.5111 64.1765 78.8731 62.9108 69.5419 55.6097C66.6695 53.362 61.5739 49.3859 58.2186 46.7741C54.8632 44.162 51.9416 41.8402 51.726 41.6144C51.3935 41.2663 51.2101 40.319 50.5202 35.3891C50.0725 32.1911 49.4165 27.5155 49.0623 24.999C47.6874 15.2317 46.3033 5.09012 46.3033 4.78223C46.3033 4.4934 46.4787 4.47358 47.9714 4.59368C48.889 4.66746 50.6262 4.89376 51.832 5.0966ZM47.3518 53.5616C48.5052 54.0308 51.465 55.2297 53.9291 56.226C56.3932 57.2225 61.369 59.2399 64.9865 60.7094C68.604 62.1791 73.2725 64.0751 75.361 64.9231C77.4497 65.7711 79.1958 66.5022 79.2414 66.5479C79.3548 66.6614 77.6575 69.0904 76.1691 70.9444C71.2093 77.1226 63.1649 82.2923 55.4232 84.2766C51.4126 85.3043 49.0005 85.6113 44.9688 85.6069C40.9366 85.6023 38.4628 85.2885 34.5432 84.2838C26.7826 82.2948 19.2433 77.4944 13.9648 71.1814C12.3031 69.1939 10.5961 66.7125 10.8027 66.5847C10.8838 66.5346 12.1485 66.0067 13.6134 65.4115C15.0781 64.8163 17.778 63.7066 19.613 62.9455C21.448 62.1845 26.4667 60.1226 30.7657 58.3637C35.0648 56.6048 39.9977 54.5785 41.7278 53.8607C43.4579 53.1431 44.9592 52.5902 45.0641 52.6324C45.1689 52.6743 46.1984 53.0926 47.3518 53.5616Z" fill="#636262"/>
</svg>
