<svg width="113" height="90" viewBox="0 0 113 90" fill="none" xmlns="http://www.w3.org/2000/svg">
<path fill-rule="evenodd" clip-rule="evenodd" d="M54.0035 0.0551904C40.5533 0.860021 28.676 7.11401 20.5036 17.6945C16.9547 22.2891 14.1585 28.0418 12.678 33.7946L12.3167 35.1984L7.89499 35.2524C4.81788 35.29 3.40746 35.3446 3.257 35.4321C2.90713 35.6355 2.53877 36.0788 1.3429 37.7361C-0.0944281 39.7279 -0.0923718 39.724 0.0741891 40.1258C0.146823 40.3008 0.307872 40.4984 0.432063 40.5648C0.561443 40.634 2.94582 40.8283 6.01072 41.0197L11.3635 41.3537L11.3453 41.6777C11.2742 42.9476 11.3233 47.7549 11.4186 48.8588C11.9164 54.6196 13.4991 60.1707 16.1138 65.3269C22.2219 77.3724 33.349 86.0127 46.5519 88.9623C51.4768 90.0626 57.2653 90.3012 62.3802 89.6144C79.3838 87.3316 93.6998 75.4363 99.0822 59.1184C99.4251 58.0786 99.8399 56.6812 100.004 56.013L100.302 54.7981L104.526 54.7975C106.964 54.7972 108.911 54.752 109.132 54.6906C109.625 54.5538 109.928 54.2225 111.319 52.2941C112.682 50.4051 112.718 50.3417 112.633 50.0028C112.473 49.364 112.592 49.3841 106.717 49.0041C103.733 48.811 101.291 48.6507 101.291 48.6479C101.291 48.6451 101.291 47.1 101.291 45.2142C101.291 41.523 101.205 40.387 100.696 37.3582C99.6781 31.2999 97.2832 25.274 93.8507 20.1342C86.2454 8.7457 74.0439 1.45039 60.5427 0.219223C58.1579 0.00173632 55.8597 -0.0559287 54.0035 0.0551904ZM58.8674 6.47494C65.5006 6.79415 72.7653 9.40334 78.6025 13.5629C80.4807 14.9012 81.7695 16.0041 83.6236 17.8594C89.0882 23.3278 92.8257 30.2706 94.2594 37.6166C94.8157 40.4671 94.9057 41.4729 94.9101 44.8812C94.9123 46.6431 94.8775 48.1215 94.8327 48.1663C94.7878 48.2111 88.0513 47.8213 79.8627 47.2998C71.6741 46.7784 64.4513 46.3259 63.8123 46.2941C63.1732 46.2625 62.6508 46.207 62.6514 46.1708C62.6519 46.1347 65.8092 43.9469 69.6677 41.3091C73.9632 38.3725 76.7276 36.4154 76.7978 36.2611C76.9243 35.984 76.8118 35.5517 76.5732 35.3979C76.4952 35.3475 63.4855 35.2821 47.6626 35.2524L18.894 35.1984L19.348 33.7373C21.262 27.5783 24.6598 22.0817 29.4272 17.4321C31.3927 15.5151 32.8933 14.3004 35.0884 12.8494C38.6467 10.4974 42.055 8.91167 45.8622 7.83698C49.4425 6.82644 53.7873 6.24838 56.8138 6.37991C57.2596 6.39924 58.1837 6.442 58.8674 6.47494ZM33.9535 42.76C42.2167 43.2643 49.2155 43.7131 49.5065 43.7572L50.0353 43.8374L43.0753 48.6302C39.2472 51.2662 36.0545 53.4987 35.9801 53.5913C35.7498 53.8782 35.8185 54.3297 36.1298 54.5743L36.4146 54.7981H65.0429C80.7885 54.7981 93.6712 54.8382 93.6712 54.8872C93.6712 55.1523 92.9168 57.4402 92.363 58.8548C89.6078 65.8921 84.7599 72.0867 78.5675 76.4826C72.8392 80.549 66.3221 82.9486 59.4275 83.53C57.514 83.6914 53.1408 83.6016 51.4635 83.3665C48.0624 82.89 44.8656 82.0375 41.8775 80.8104C29.1305 75.5755 19.9737 63.91 18.0148 50.41C17.625 47.7236 17.4978 43.7185 17.7503 42.0823L17.8046 41.7309L18.367 41.7869C18.6764 41.8177 25.6903 42.2556 33.9535 42.76Z" fill="#636262"/>
</svg>
