<svg width="90" height="90" viewBox="0 0 90 90" fill="none" xmlns="http://www.w3.org/2000/svg">
<path fill-rule="evenodd" clip-rule="evenodd" d="M42.3889 0.0436632C37.1011 0.388334 32.4661 1.45543 27.6571 3.43522C26.2587 4.01096 23.316 5.49056 22.0243 6.26751C14.503 10.7913 8.58905 17.1438 4.74633 24.8268C2.13359 30.0505 0.681129 35.2243 0.114387 41.326C-0.10147 43.6491 -0.00134093 48.0349 0.326541 50.6223C1.97974 63.6686 9.22111 75.3135 20.1798 82.5486C27.3313 87.27 35.3189 89.7677 43.9645 89.9858C54.0083 90.2392 63.8663 87.0918 71.9314 81.0567C74.3916 79.2156 76.46 77.3081 78.7915 74.7303C79.3552 74.1071 80.5115 72.671 81.2025 71.7358C88.4585 61.9169 91.3886 49.667 89.3841 37.5305C88.2881 30.8948 85.6631 24.5366 81.719 18.9644L81.0866 18.0709L82.1012 17.0539C82.6592 16.4947 83.1534 16.037 83.1993 16.037C83.4442 16.037 85.992 19.8754 87.0559 21.8472L87.2791 22.2608H88.1332H88.9872V11.6646V1.06846H78.3519H67.7167V1.87755V2.68664L68.7416 3.26876C70.0861 4.03247 71.7669 5.11517 73.024 6.02731L74.0365 6.76203L72.9673 7.83125L71.8981 8.9004L71.5602 8.64562C71.3744 8.50547 70.6197 7.98827 69.8831 7.49643C63.6614 3.34147 56.7263 0.895138 49.0852 0.159866C47.5826 0.0153016 43.8248 -0.0499297 42.3889 0.0436632ZM48.4944 11.2715C59.4386 12.4347 68.9953 18.6884 74.4979 28.2876C75.3871 29.8387 76.2407 31.7173 76.9861 33.7629C77.2379 34.4543 77.8793 36.6116 77.8793 36.7675C77.8793 36.8054 63.3507 36.8354 44.9887 36.8354C25.3169 36.8354 12.0981 36.8067 12.0981 36.7638C12.0981 36.6401 12.6302 34.8658 12.9509 33.9205C15.3248 26.9225 20.2124 20.6726 26.5261 16.5615C31.4586 13.3498 37.0021 11.5393 43.1767 11.1235C44.1025 11.0611 47.3707 11.1521 48.4944 11.2715ZM35.7714 40.8118C37.9279 41.2671 39.3462 42.4886 39.7095 44.2034C39.8553 44.8921 39.8553 45.1647 39.7095 45.856C39.4747 46.9696 38.7902 47.9211 37.7842 48.5322C37.2118 48.8799 36.1093 49.2458 35.2706 49.3664C34.3237 49.5026 32.4119 49.4208 31.5567 49.2073C30.5148 48.9474 29.6702 48.5004 29.0481 47.8796C28.2077 47.041 27.854 46.1967 27.854 45.0288C27.854 42.7535 29.469 41.1924 32.3051 40.7259C33.1233 40.5914 34.9406 40.6364 35.7714 40.8118ZM72.6801 40.7308C74.0103 40.9313 75.2057 41.4546 75.9414 42.1584C76.7211 42.9044 77.0941 43.7204 77.1524 44.8082C77.2209 46.0855 76.8202 47.0992 75.9091 47.9538C74.7498 49.0412 73.121 49.5041 70.7609 49.4171C69.3324 49.3644 68.6229 49.2026 67.5864 48.6929C65.6414 47.7364 64.7563 45.6931 65.4337 43.724C65.9541 42.2114 67.475 41.0953 69.4498 40.7768C69.7748 40.7244 70.0938 40.6712 70.1588 40.6584C70.5114 40.5893 72.0312 40.633 72.6801 40.7308ZM20.8426 41.4442V42.1138H19.8579C19.3163 42.1138 18.8731 42.1325 18.8731 42.1553C18.8731 42.1942 20.1071 44.4637 21.1767 46.3918C21.4362 46.8597 21.6662 47.2251 21.6876 47.2037C21.7091 47.1823 22.3398 46.0283 23.0891 44.6393L24.4516 42.1138H23.6318H22.8121V41.4432V40.7726L25.7073 40.7933L28.6025 40.8139V41.4442V42.0744L27.6026 42.0964C26.7385 42.1155 26.5966 42.1369 26.5582 42.254C26.5337 42.3286 25.687 43.914 24.6767 45.7772L22.8398 49.1648L20.5555 49.1857L18.2713 49.2066L17.6548 48.0827C17.3157 47.4646 16.4362 45.8688 15.7004 44.5364L14.3625 42.1138H13.3878H12.4132V41.4442V40.7745H16.6279H20.8426V41.4442ZM48.0611 41.4442V42.0744L47.096 42.0966L46.131 42.1187V44.9983V47.8779L47.4899 47.8517L48.8489 47.8255L49.3509 47.5534C50.0248 47.188 50.4238 46.6618 50.6017 45.9036L50.7331 45.3439H51.3469H51.9607V47.274V49.2042H46.131H40.3013V48.5346V47.8649H41.286H42.2708V44.9894V42.1138H41.286H40.3013V41.4435V40.773L44.1812 40.7935L48.0611 40.8139V41.4442ZM58.2465 41.4245L58.2237 42.0744L57.2277 42.0964L56.2317 42.1184L57.6216 44.6735C58.3861 46.0788 59.0292 47.2298 59.0509 47.231C59.0725 47.2323 59.3117 46.8171 59.5824 46.3083C59.8532 45.7996 60.4509 44.692 60.9108 43.847C61.3707 43.0021 61.7641 42.2678 61.7849 42.2151C61.8129 42.1447 61.6083 42.1136 61.008 42.097L60.1932 42.0744V41.4442V40.8139L63.0883 40.7933L65.9835 40.7726V41.4432V42.1138L65.0184 42.1139L64.0534 42.114L63.8472 42.4881C63.7338 42.6939 62.87 44.2897 61.9276 46.0344L60.2142 49.2066L57.9292 49.1857L55.6442 49.1648L53.7041 45.6393L51.7639 42.1138H50.7988H49.8336V41.4442V40.7745H54.0515H58.2695L58.2465 41.4245ZM33.17 42.1037C32.4517 42.4299 31.9567 43.2462 31.7914 44.3772C31.5613 45.9504 32.1311 47.5162 33.0929 47.9542C33.5154 48.1467 34.1593 48.1432 34.545 47.9464C35.9407 47.2343 36.3489 44.2883 35.2692 42.719C34.8081 42.0488 33.8858 41.7785 33.17 42.1037ZM70.5126 42.1032C69.6818 42.4806 69.1386 43.6446 69.1359 45.0526C69.1335 46.2941 69.5466 47.3472 70.2213 47.8201C70.4985 48.0144 70.6548 48.0622 71.0879 48.0853C71.529 48.1087 71.6748 48.0821 71.9708 47.9241C72.3982 47.6958 72.7609 47.241 73.0054 46.6266C73.1658 46.2236 73.187 46.0347 73.1892 44.9894C73.1914 43.9418 73.1715 43.7578 73.0139 43.3681C72.7879 42.8092 72.3455 42.291 71.9358 42.1048C71.5287 41.9199 70.9176 41.9192 70.5126 42.1032ZM77.8793 53.2184C77.8793 53.2598 77.7215 53.8383 77.5287 54.504C76.2266 58.9998 74.058 63.0392 70.8864 66.8762C70.1023 67.8249 67.8069 70.1131 66.8107 70.9392C61.0968 75.6774 54.5321 78.3107 47.1551 78.824C40.2879 79.3017 33.0087 77.4829 27.1852 73.8341C19.8795 69.2566 14.7049 62.4117 12.3766 54.245C12.2234 53.7077 12.0981 53.24 12.0981 53.2057C12.0981 53.1713 26.8988 53.1433 44.9887 53.1433C65.8112 53.1433 77.8793 53.1709 77.8793 53.2184Z" fill="#636262"/>
</svg>
