<svg width="112" height="90" viewBox="0 0 112 90" fill="none" xmlns="http://www.w3.org/2000/svg">
<path fill-rule="evenodd" clip-rule="evenodd" d="M38.2198 0.046211C28.2236 0.255447 20.3336 1.43623 14.6129 3.57917C6.08172 6.77489 1.6995 12.2581 0.419086 21.3391C0.127593 23.4066 0.0481949 24.6647 0.00963216 27.8273C-0.0398542 31.886 0.0924026 34.6559 0.615418 40.5105C0.784185 42.4002 1.06285 45.2487 1.34334 47.9518C1.40192 48.5163 1.53367 49.8029 1.63616 50.811C1.73865 51.8191 1.87017 53.1057 1.92853 53.6702C1.98689 54.2347 2.13549 55.7688 2.25866 57.0793C2.71701 61.9544 2.85572 63.1606 3.1816 65.1071C4.87652 75.2299 8.73118 81.8637 15.131 85.6721C19.2523 88.1245 24.3013 89.4606 31.2184 89.9291C32.6864 90.0286 78.15 90.021 79.9217 89.9211C94.7965 89.0816 102.913 83.6385 106.772 71.914C107.943 68.3584 108.662 64.486 109.112 59.3153C109.266 57.5406 110.039 49.727 110.391 46.3756C110.542 44.9468 110.971 40.3162 111.125 38.4577C111.758 30.8513 111.72 24.6479 111.015 20.504C110.562 17.8371 109.881 15.6482 108.859 13.5679C106.705 9.1863 103.221 6.11742 97.8966 3.91062C96.6994 3.41436 94.4712 2.67815 93.0946 2.32405C88.441 1.12677 83.7071 0.498553 76.3792 0.105815C74.5426 0.00742838 42.4677 -0.0427178 38.2198 0.046211ZM80.8513 4.39031C84.0724 4.63136 85.9228 4.86706 88.2174 5.32857C93.2249 6.33567 96.9457 8.00552 99.7027 10.483C104.391 14.6956 106.224 21.3027 105.778 32.3727C105.637 35.8509 105.492 37.8863 104.821 45.789C104.549 48.9909 104.435 50.4279 104.167 54.0368C104.128 54.561 104.062 55.5837 104.021 56.3095C103.694 62.027 103.536 63.661 103.061 66.2801C101.871 72.8288 99.5225 77.4987 95.8805 80.557C92.8259 83.1221 88.8025 84.6939 83.2707 85.4833C78.6364 86.1446 74.5891 86.2504 53.7621 86.2544C38.0279 86.2574 34.1832 86.1734 30.1553 85.7385C22.8368 84.9485 18.1044 83.0655 14.6129 79.5542C12.5956 77.5254 11.1422 75.0819 9.87904 71.5953C8.91498 68.9342 8.02752 64.0861 7.79886 60.2317C7.7762 59.8487 7.7243 58.9579 7.68368 58.2523C7.46198 54.4048 7.22599 51.2573 6.7298 45.5325C6.24352 39.9216 6.14015 38.6162 5.96361 35.8551C5.64367 30.8527 5.6337 27.5518 5.92879 24.3083C6.91983 13.4159 11.9886 7.7792 22.8973 5.43868C24.9929 4.98905 27.1731 4.69404 30.3753 4.42674C31.5437 4.32924 53.4595 4.23752 69.5978 4.26267C77.5479 4.27506 79.626 4.29859 80.8513 4.39031ZM80.9061 7.79453C80.8378 8.06674 80.2854 10.4503 79.6788 13.0914C79.072 15.7325 78.5285 18.0914 78.4709 18.3333C78.3553 18.8182 78.0193 20.2767 75.9035 29.4769C75.1153 32.9043 74.4233 35.9064 74.3657 36.1484C74.3081 36.3903 74.0258 37.611 73.7383 38.861C72.5216 44.1511 72.3401 44.9031 72.1376 45.4958C70.7091 49.6754 68.3423 52.7124 65.2356 54.3521C64.3466 54.8213 63.3519 55.1876 62.3764 55.4049L61.6066 55.5764H55.8882C50.1797 55.5764 50.1685 55.5761 49.4 55.4065C46.6242 54.7941 44.7358 53.8099 42.9791 52.06C42.0053 51.09 41.5634 50.5273 40.8988 49.4118C40.1376 48.1337 39.6137 46.793 39.2542 45.2025C38.9602 43.9017 37.2633 36.5765 37.1569 36.1484C37.1168 35.9871 36.937 35.2118 36.7575 34.4255C36.5779 33.6392 35.8998 30.703 35.2506 27.9007C34.6013 25.0983 33.9226 22.1621 33.7423 21.3758C33.562 20.5895 33.3675 19.7482 33.31 19.5063C33.1755 18.9405 32.9826 18.1109 32.645 16.6471C32.4962 16.0019 32.1784 14.6328 31.9388 13.6046C31.6992 12.5764 31.4091 11.3227 31.2942 10.8187C31.1793 10.3147 30.961 9.36585 30.8092 8.71021L30.5331 7.51814L30.0876 7.5578C29.6476 7.59695 27.6152 7.75941 24.5469 8.00061C23.6799 8.06879 22.9454 8.14724 22.9146 8.17495C22.8838 8.20273 22.8928 8.7017 22.9344 9.28381C22.9761 9.86592 23.0756 11.2989 23.1555 12.4682C23.2354 13.6376 23.3678 15.5676 23.4497 16.7571C23.5317 17.9466 23.6462 19.6291 23.7043 20.496C23.8043 21.9888 23.9115 23.556 24.2562 28.5605C24.3381 29.75 24.4543 31.4655 24.5142 32.3727C24.5743 33.28 24.6546 34.4677 24.6927 35.012C24.7308 35.5564 24.7961 36.4966 24.8378 37.1014C24.8794 37.7063 24.9795 39.1579 25.0601 40.3272C25.1409 41.4966 25.2571 43.2121 25.3183 44.1395C25.422 45.706 25.4617 46.2866 25.6474 48.9415C25.6854 49.4859 25.8007 51.1849 25.9035 52.7171C26.0808 55.3601 26.1469 56.3255 26.3072 58.6188C26.3452 59.1632 26.4604 60.8622 26.5632 62.3945C26.666 63.9267 26.7812 65.6257 26.8191 66.1701C26.857 66.7144 26.9232 67.6712 26.9662 68.2962C27.0092 68.9212 27.0755 69.8779 27.1136 70.4223C27.1518 70.9666 27.2339 72.1873 27.2962 73.1348C27.3584 74.0824 27.4427 75.3361 27.4835 75.9207C27.5243 76.5054 27.5884 77.4292 27.6261 77.9735C27.6637 78.5179 27.7468 79.7198 27.8109 80.6446C27.8749 81.5693 27.9407 82.3476 27.957 82.3741C27.9735 82.4007 28.7882 82.4432 29.7676 82.4687C30.747 82.4942 33.1772 82.5667 35.1683 82.6299C37.1592 82.693 38.797 82.7352 38.8077 82.7235C38.8264 82.7032 39.352 81.0829 40.8655 76.379C41.245 75.1995 41.8663 73.2695 42.2461 72.0901C42.626 70.9107 43.0574 69.5498 43.2049 69.066C43.5961 67.7823 43.8872 66.9933 44.138 66.5367C45.1028 64.7794 46.7874 63.4445 48.9447 62.7273C50.3886 62.2473 50.2212 62.2599 55.5217 62.2297C59.6878 62.2059 60.4751 62.2185 61.186 62.3204C63.5265 62.6559 65.3612 63.546 66.7588 65.0239C67.6809 65.999 68.2664 67.0471 68.6688 68.4428C68.7908 68.8662 69.1764 70.1858 69.5254 71.3753C69.8745 72.5648 70.242 73.8185 70.342 74.1612C70.5714 74.9474 70.8003 75.7261 71.9333 79.5737C72.4359 81.2804 72.8583 82.6867 72.872 82.6989C72.8962 82.7203 73.8661 82.6756 76.7091 82.522C77.4753 82.4807 79.4217 82.3775 81.0346 82.2928C82.6475 82.2081 83.9717 82.1336 83.9772 82.1272C83.9881 82.1147 84.0949 80.4657 84.2627 77.7169C84.3219 76.7492 84.4029 75.4625 84.4428 74.8577C84.4828 74.2529 84.5487 73.2301 84.5895 72.585C84.6302 71.9398 84.6961 70.9006 84.7359 70.2756C84.7757 69.6506 84.8914 67.8196 84.9929 66.2067C85.0945 64.5939 85.21 62.7794 85.2497 62.1745C85.3358 60.8623 85.4428 59.1741 85.5449 57.5191C85.658 55.6882 85.8782 52.2369 86.055 49.528C86.0932 48.9433 86.1594 47.8711 86.2022 47.1453C86.2451 46.4195 86.3282 45.0999 86.3869 44.2128C86.4456 43.3257 86.5263 42.0721 86.5662 41.4269C86.6061 40.7818 86.7063 39.1982 86.7889 37.9079C86.8714 36.6176 86.9879 34.7701 87.0476 33.8024C87.1074 32.8346 87.1886 31.5645 87.2281 30.9798C87.2677 30.3951 87.3337 29.3724 87.3748 28.7071C87.416 28.0418 87.516 26.4582 87.5971 25.1881C87.6782 23.9179 87.7931 22.1034 87.8524 21.1558C87.9118 20.2083 88.0256 18.4268 88.1054 17.1969C88.1851 15.9671 88.3013 14.1196 88.3634 13.0914C88.4255 12.0632 88.5074 10.7765 88.5453 10.2322C88.5831 9.68784 88.6347 8.9407 88.6599 8.57187L88.7057 7.90127L88.3525 7.85772C88.1583 7.83382 87.554 7.7814 87.0096 7.7413C86.4653 7.70127 85.558 7.63361 84.9935 7.59094C83.5608 7.4828 81.1158 7.30194 81.0691 7.30069C81.0479 7.3001 80.9745 7.52232 80.9061 7.79453Z" fill="#636262"/>
</svg>
