<svg width="140" height="90" viewBox="0 0 140 90" fill="none" xmlns="http://www.w3.org/2000/svg">
<path fill-rule="evenodd" clip-rule="evenodd" d="M67.9718 0.00730061C57.9852 0.235187 48.6374 1.66521 39.9204 4.29861C25.3403 8.70322 13.761 16.0965 6.79798 25.4471C0.573477 33.8059 -1.45649 43.5585 1.03931 53.1142C1.94518 56.5823 3.7109 60.4057 5.85493 63.5415C9.15077 68.362 13.473 72.5386 19.0752 76.3167C29.144 83.1068 42.6005 87.7064 57.1428 89.3289C61.9084 89.8606 65.7686 90.0465 70.879 89.9904C74.8409 89.9469 77.0655 89.8301 80.5903 89.4801C100.268 87.5265 117.511 80.3716 128.126 69.7561C133.716 64.1654 137.202 57.9659 138.573 51.1732C138.987 49.1232 139.136 47.4937 139.132 45.0509C139.128 42.9035 139.061 42.0101 138.762 40.1654C137.725 33.7617 134.726 27.8077 129.73 22.2313C128.816 21.2108 126.604 19.0425 125.559 18.1419C120.747 13.9961 115.058 10.4989 108.558 7.69001C98.2109 3.21948 86.2568 0.613409 73.7244 0.0961659C72.0513 0.0270888 69.1014 -0.0184874 67.9718 0.00730061ZM73.91 5.96797C86.9045 6.46963 98.5764 9.35763 104.837 13.6204C107.315 15.3077 108.759 17.0229 109.301 18.9239C109.502 19.6306 109.505 20.8695 109.306 21.597C108.97 22.8263 108.293 23.9096 107.127 25.0806C104.259 27.9616 99.041 30.373 91.9491 32.0947C90.0598 32.5534 86.0046 33.3545 85.9333 33.2832C85.9244 33.2743 85.8447 32.8642 85.7562 32.3719C83.5865 20.3068 79.0097 11.4377 73.4725 8.56816C72.137 7.87603 70.9582 7.57474 69.5874 7.57505C68.6516 7.57529 67.9176 7.69329 67.0447 7.98376C60.891 10.0318 55.6609 19.4669 53.3441 32.6997L53.2382 33.3043L53.0432 33.2709C48.8581 32.5547 45.7022 31.8077 42.673 30.8164C37.8186 29.2277 34.2538 27.3063 32.0309 25.0803C30.888 23.9358 30.2784 22.971 29.8903 21.6923C29.7469 21.2198 29.7249 21.0364 29.7211 20.2833C29.7175 19.5572 29.7397 19.3379 29.8585 18.9239C30.4056 17.0175 31.8504 15.3015 34.3231 13.6215C35.416 12.879 36.1206 12.4788 37.6197 11.7494C46.1886 7.57999 59.7409 5.42098 73.91 5.96797ZM70.6 17.4693C71.1505 17.6101 71.9491 18.014 72.4714 18.4159C72.9737 18.8023 73.9407 19.8261 74.3852 20.442C76.4075 23.2438 78.0512 27.6506 79.0741 33.0129C79.1854 33.5965 79.2589 34.0916 79.2375 34.113C79.1971 34.1536 77.2388 34.2985 74.9924 34.4272C73.235 34.5279 65.9996 34.5287 64.2296 34.4284C62.4298 34.3264 60.0406 34.1636 59.9556 34.1372C59.8181 34.0944 60.4869 30.8718 61.0452 28.8873C62.1248 25.0501 63.6705 21.7031 65.2045 19.8813C65.6071 19.4032 66.4172 18.6176 66.7966 18.3375C67.9963 17.4515 69.3351 17.1459 70.6 17.4693ZM17.6192 24.0711C17.869 25.194 18.8062 27.2346 19.6726 28.5423C22.9952 33.5571 28.9104 37.7284 36.9324 40.7136C40.1768 41.921 43.4871 42.8432 47.5287 43.6658C48.7434 43.9131 51.7539 44.4325 51.9721 44.4325H52.1199L52.1555 47.7565C52.201 52.0219 52.3651 54.5738 52.8225 58.1304C54.2725 69.407 58.0541 79.0915 62.9849 84.1562C63.3473 84.5285 63.4713 84.6914 63.3921 84.6914C63.1511 84.6914 60.959 84.4979 59.8379 84.3776C41.8036 82.4433 26.1874 74.8391 17.3655 63.6961C15.6276 61.5011 14.3349 59.4588 13.1377 57.0173C11.4152 53.5043 10.452 50.1894 10.0109 46.2568C9.9046 45.3087 9.86297 41.8858 9.94548 40.8766C10.3063 36.4642 11.4527 32.7182 13.5685 29.0366C14.3033 27.7582 15.4055 26.1567 16.2519 25.1379C16.9123 24.3429 17.4628 23.7155 17.5001 23.7155C17.5221 23.7155 17.5756 23.8755 17.6192 24.0711ZM122.194 24.2876C126.365 29.0916 128.69 34.529 129.207 40.6911C129.287 41.6496 129.288 44.4113 129.208 45.4838C128.907 49.5151 127.846 53.3242 125.961 57.1409C123.72 61.6803 120.641 65.592 116.219 69.5198C114.32 71.2066 111.214 73.4493 108.642 74.9905C100.482 79.8805 90.5407 83.1038 79.8768 84.317C78.7929 84.4403 76.0586 84.69 75.7813 84.6909C75.6669 84.6913 75.7312 84.6013 76.1453 84.1812C81.2201 79.0326 85.1085 68.851 86.4605 57.1719C86.8495 53.8112 86.9672 51.8125 87.0154 47.7459L87.0542 44.4732L88.6323 44.2121C94.7486 43.2 100.107 41.699 104.879 39.6614C106.035 39.1681 108.451 37.9693 109.517 37.3604C114.704 34.3988 118.52 30.7255 120.477 26.8121C120.963 25.8408 121.395 24.7265 121.541 24.0711C121.585 23.8755 121.638 23.7155 121.659 23.7155C121.68 23.7155 121.921 23.973 122.194 24.2876ZM60.1482 45.327C65.4697 45.76 73.6427 45.7592 79.035 45.3251C79.6934 45.2721 80.2452 45.2417 80.2611 45.2577C80.3083 45.3049 80.1636 47.8215 80.0293 49.287C79.0645 59.8163 75.5237 68.537 71.4048 70.5285C70.6541 70.8914 70.2682 70.9888 69.5801 70.9888C68.8928 70.9888 68.5068 70.8916 67.7553 70.5294C64.878 69.1425 62.1993 64.3851 60.5303 57.6975C59.6864 54.3164 59.1459 50.5779 58.9432 46.7206C58.8638 45.2082 58.8635 45.2364 58.9575 45.2364C59.0005 45.2364 59.5364 45.2772 60.1482 45.327Z" fill="#636262"/>
</svg>
