<svg width="90" height="90" viewBox="0 0 90 90" fill="none" xmlns="http://www.w3.org/2000/svg">
<path fill-rule="evenodd" clip-rule="evenodd" d="M43.0263 0.0445146C37.9905 0.288621 33.3722 1.24479 28.8669 2.97612C15.7007 8.03575 5.65148 18.9929 1.75016 32.5427C-0.0872675 38.924 -0.486128 45.7342 0.592458 52.3072C3.4791 69.898 16.4878 84.138 33.7366 88.5882C44.0801 91.2569 55.2033 90.1137 64.7523 85.4006C77.6786 79.0207 86.777 66.8542 89.2111 52.6941C89.6887 49.9156 89.8438 48.0305 89.8438 45.0048C89.8438 42.6981 89.7745 41.4333 89.5439 39.5285C87.3753 21.6215 74.5969 6.6621 57.2471 1.71913C52.7214 0.429804 47.5764 -0.176112 43.0263 0.0445146ZM48.72 6.85212C57.9569 7.84055 66.057 11.767 72.4258 18.3434C81.6744 27.8935 85.2924 41.4527 82.0484 54.4058C80.6485 59.9951 78.0283 65.1142 74.2256 69.689C73.2277 70.8895 70.7869 73.3335 69.588 74.3328C63.7383 79.2081 56.8388 82.2049 49.4692 83.0711C38.8166 84.3232 28.2312 81.1101 20.0642 74.1452C18.8986 73.1512 16.6014 70.8325 15.6492 69.689C8.77988 61.4392 5.68384 51.0726 6.9217 40.4662C8.1714 29.7573 13.9956 19.9688 22.8416 13.7098C28.6101 9.62837 35.211 7.27297 42.3528 6.74785C43.6156 6.65497 47.4671 6.71806 48.72 6.85212ZM43.2885 12.5682C41.1816 12.6909 37.5948 13.2414 37.5948 13.4421C37.5948 13.543 45.3251 35.426 45.3864 35.4986C45.4327 35.5535 53.2592 13.965 53.2803 13.7245C53.2994 13.5074 50.0723 12.8733 47.9334 12.6738C47.0109 12.5878 44.0921 12.5214 43.2885 12.5682ZM28.6796 16.8931C26.1804 18.3937 23.9915 20.0808 22.1062 21.9598C20.7084 23.3528 20.1883 23.9684 20.2404 24.1678C20.3287 24.506 33.8877 59.6316 33.9302 59.6324C33.9544 59.6328 34.9966 56.7299 36.2465 53.1813L38.5188 46.7294L45.2631 46.7486L52.0073 46.7677L54.2023 53.1067C55.4096 56.5931 56.4244 59.5084 56.4574 59.5852C56.5007 59.6861 58.3516 54.821 63.1359 42.0311C66.7761 32.2996 69.7682 24.3009 69.785 24.2564C69.8591 24.06 67.6098 21.7105 66.0897 20.3964C64.7697 19.2553 61.8655 17.1733 61.5938 17.1733C61.5528 17.1733 59.4486 22.9966 56.9177 30.114L52.3161 43.0548L45.5003 43.0358L38.6846 43.0168L33.8881 29.8708C31.2501 22.6406 29.058 16.7273 29.0168 16.7303C28.9756 16.7332 28.8239 16.8065 28.6796 16.8931ZM14.537 33.6772C14.2644 34.3723 13.7193 36.1535 13.4696 37.1655C11.3032 45.9435 12.8713 55.2337 17.7889 62.7551C20.4043 66.7554 23.9331 70.1897 27.9805 72.6738C28.5114 72.9996 29.0874 73.3385 29.2606 73.427L29.5755 73.5878L29.4961 73.3809C29.4524 73.267 26.1122 64.3124 22.0733 53.4818C18.0343 42.6511 14.703 33.7222 14.6703 33.6396C14.6136 33.4973 14.6069 33.4991 14.537 33.6772ZM75.4291 34.4648C74.8898 35.8241 60.8956 73.176 60.9109 73.2155C60.9331 73.2731 61.8941 72.7027 62.908 72.03C64.5498 70.9406 66.3198 69.4877 67.7957 68.0182C75.3024 60.5442 78.6653 49.9829 76.8864 39.4685C76.6194 37.8905 75.9727 35.3679 75.5939 34.4273L75.5184 34.2398L75.4291 34.4648ZM41.0956 65.2788C38.7975 71.354 36.9181 76.3621 36.9189 76.4081C36.9209 76.5071 38.7235 76.9041 40.1045 77.1096C43.866 77.6693 47.7265 77.5669 51.4509 76.8088C52.5206 76.591 53.3161 76.3984 53.3704 76.3441C53.4066 76.3078 45.3609 54.2318 45.3117 54.2324C45.2909 54.2327 43.3936 59.2036 41.0956 65.2788Z" fill="#636262"/>
</svg>
