<svg width="160" height="70" viewBox="0 0 160 70" fill="none" xmlns="http://www.w3.org/2000/svg">
<path fill-rule="evenodd" clip-rule="evenodd" d="M74.5348 0.16694C68.6136 1.10782 62.336 3.89738 57.7689 7.61726C55.6636 9.33215 52.4899 12.7141 51.2169 14.5991L50.1993 16.1066L25.0996 16.1138C11.2947 16.1181 0 16.2025 0 16.3018C0 16.4011 1.03291 17.5093 2.29553 18.7647L4.59082 21.0473L25.9844 21.1074C44.8718 21.1602 47.3655 21.2085 47.2734 21.5193C47.2158 21.7129 46.7965 23.0068 46.3411 24.3943L45.5135 26.9172H28.1647C18.6229 26.9172 10.8158 26.9984 10.8158 27.0974C10.8158 27.1965 11.902 28.3582 13.2298 29.6791L15.6438 32.0804H30.145H44.6461L44.7187 34.9172C44.7587 36.4774 44.7453 37.7994 44.6891 37.855C44.6331 37.9107 39.5015 37.9522 33.2855 37.9478C27.0698 37.9431 21.8803 37.9412 21.7533 37.9435C21.6264 37.9459 22.6296 39.0567 23.9828 40.412L26.4431 42.8763H35.9707H45.4982L46.3338 45.3992C46.7935 46.7867 47.2541 48.1069 47.3575 48.3329C47.5346 48.7194 47.0984 48.7436 39.9419 48.7436H32.3382L34.7986 51.2079L37.2589 53.6721H43.6249H49.991L51.1529 55.2516C54.772 60.1715 59.0811 63.8435 64.2116 66.3791C67.0046 67.7598 69.8153 68.7202 73.124 69.4247C76.6995 70.1861 82.7256 70.1926 86.4874 69.439C89.385 68.8589 93.33 67.5406 95.6067 66.3915C100.182 64.0831 105.26 59.7566 108.265 55.6063L109.666 53.6721H116.028H122.391L124.852 51.2079L127.312 48.7436H119.851C115.747 48.7436 112.39 48.6852 112.39 48.6136C112.39 48.5422 112.76 47.3789 113.213 46.0284C113.665 44.6783 114.036 43.4166 114.036 43.2248C114.036 42.9223 115.301 42.8763 123.621 42.8763H133.207L135.613 40.4667C136.936 39.1414 138.019 38.0062 138.019 37.9438C138.019 37.8813 132.834 37.8588 126.497 37.8935L114.976 37.9564V35.0186V32.0804H129.491H144.006L146.42 29.6791C147.748 28.3582 148.834 27.1965 148.834 27.0974C148.834 26.9984 141.013 26.9172 131.454 26.9172H114.073L113.907 26.1594C113.815 25.7428 113.437 24.5017 113.068 23.4017C112.698 22.302 112.394 21.3238 112.393 21.2283C112.391 21.133 121.99 21.0548 133.724 21.055H155.057L157.529 18.5882L160 16.1213H134.795H109.59L109.168 15.5179C103.657 7.64448 96.2143 2.60704 86.9919 0.507948C84.9736 0.0484203 76.7047 -0.177823 74.5348 0.16694ZM86.3545 5.55266C97.0485 7.90123 105.92 16.264 108.884 26.7898C112.383 39.2193 107.382 52.7273 96.6217 59.9068C91.4826 63.3356 86.2485 64.9341 80.0981 64.9529C73.6794 64.9724 68.2012 63.3403 62.896 59.8286C60.7536 58.4104 56.3384 54.0031 54.9639 51.9105C52.5108 48.1761 50.895 44.2086 50.1565 40.1057C49.7093 37.6208 49.6615 32.5996 50.0624 30.2029C52.2131 17.3448 62.2981 7.3077 75.1795 5.20532C78.0819 4.73171 83.3639 4.89576 86.3545 5.55266ZM55.8815 27.0737C55.7953 27.1596 55.7247 30.7554 55.7247 35.0638V42.8977L57.3118 42.8284L58.8989 42.7589V37.2073C58.8989 34.1539 58.9563 31.6911 59.0261 31.7343C59.0962 31.7774 59.9426 34.3004 60.9071 37.3406L62.6609 42.8683L64.4295 42.8723L66.1979 42.8763L66.9609 40.4707C67.3806 39.1477 68.1878 36.6393 68.7549 34.8967L69.7857 31.7284L69.809 37.3023L69.8322 42.8763H71.4781H73.124V34.8883V26.9003L70.8315 26.9674L68.5391 27.0345L67.7116 29.4988C67.2567 30.8542 66.362 33.6259 65.7237 35.6583C65.0853 37.6908 64.494 39.2749 64.4093 39.1787C64.3249 39.0825 63.5984 36.9444 62.7949 34.4274C61.9918 31.9103 61.1215 29.1909 60.8617 28.384L60.3889 26.9172H58.2135C57.0172 26.9172 55.9676 26.9876 55.8815 27.0737ZM76.8077 27.0737C76.7214 27.1596 76.6509 30.7504 76.6509 35.0533V42.8763H78.2968H79.9426V34.8967V26.9172H78.4536C77.6344 26.9172 76.8938 26.9876 76.8077 27.0737ZM83.7046 34.8967V42.8763H85.233H86.7613V37.361C86.7613 34.3276 86.8405 31.8486 86.9376 31.8523C87.0347 31.8558 87.7754 33.0967 88.5835 34.61C89.3919 36.123 90.7495 38.6018 91.6002 40.1187L93.1473 42.8763H95.1301H97.1131L97.0511 34.9554L96.9892 27.0345H95.4609H93.9326L93.815 32.6615L93.6975 38.2885L91.7227 34.6564C90.6364 32.6587 89.2277 30.1003 88.5922 28.9708L87.4368 26.9172H85.5706H83.7046V34.8967ZM100.634 34.8967V42.8763H102.28H103.925V34.8967V26.9172H102.28H100.634V34.8967Z" fill="#636262"/>
</svg>
