<svg width="153" height="52" viewBox="0 0 153 52" fill="none" xmlns="http://www.w3.org/2000/svg">
<path fill-rule="evenodd" clip-rule="evenodd" d="M25.6252 0.0222586C23.4422 0.136147 21.8599 0.365097 19.9609 0.84193C17.1198 1.55524 14.2131 2.83669 11.7213 4.47433C9.53598 5.91053 7.43742 7.80589 5.74487 9.87211C3.56185 12.5371 1.84856 15.8282 0.923205 19.1341C0.233355 21.5986 -0.0451532 23.8406 0.00589252 26.5179C0.0390345 28.2578 0.170625 29.5017 0.484585 31.0439C2.34649 40.189 9.11153 47.6735 18.2031 50.6466C20.1854 51.2949 22.0753 51.6801 24.3368 51.8967C25.3074 51.9897 27.8992 52.0024 28.8905 51.919C34.0453 51.4855 38.8096 49.721 42.8689 46.742C43.1045 46.5691 43.3093 46.4277 43.324 46.4277C43.3387 46.4277 43.5957 46.6067 43.8952 46.8256C48.643 50.2952 54.5079 52.1194 60.4776 51.9832C63.2563 51.9198 65.7065 51.5168 68.2521 50.7043C71.0065 49.8251 73.8833 48.3608 76.0545 46.7327C76.2783 46.565 76.4741 46.4277 76.4895 46.4277C76.5049 46.4277 76.777 46.6154 77.094 46.8447C84.2171 51.9982 93.4893 53.3882 101.883 50.5607C104.39 49.7162 107.083 48.3186 109.165 46.7813C109.431 46.5845 109.674 46.4328 109.704 46.4441C109.734 46.4554 109.926 46.5905 110.13 46.7444C112.152 48.2667 114.844 49.6711 117.41 50.5414C119.516 51.256 121.757 51.7207 124.029 51.9137C124.938 51.9909 127.319 52.0007 128.217 51.9309C131.803 51.6523 135.028 50.7967 138.135 49.3002C142.787 47.0586 146.677 43.5428 149.318 39.1908C151.431 35.7086 152.652 31.8719 152.95 27.7726C153.042 26.5108 153.003 24.5472 152.859 23.2105C152.126 16.4141 148.619 10.1589 143.088 5.78167C139.258 2.75091 134.447 0.766164 129.538 0.192677C127.982 0.0108132 125.643 -0.0412785 124.185 0.0734798C119.088 0.474677 114.272 2.23108 110.286 5.14186C109.996 5.35332 109.734 5.53597 109.702 5.5478C109.671 5.55964 109.398 5.38953 109.096 5.16985C102.941 0.693618 95.1039 -0.981974 87.5349 0.560234C83.773 1.32673 80.0067 2.99157 77.0159 5.21001C76.7535 5.40458 76.5212 5.56378 76.4995 5.56378C76.4778 5.56378 76.212 5.38261 75.9088 5.16123C70.4403 1.16823 63.5302 -0.615201 56.6569 0.192503C51.999 0.739879 47.6646 2.43558 43.8466 5.20409C43.5693 5.40519 43.3194 5.5609 43.2913 5.55007C43.2632 5.53923 43.0203 5.36894 42.7515 5.17163C41.5178 4.26597 40.1198 3.43568 38.5754 2.69142C35.2566 1.09203 31.9103 0.243376 28.1131 0.0379253C27.3625 -0.00267752 26.2389 -0.00977106 25.6252 0.0222586ZM28.8239 6.06385C32.2748 6.43079 35.589 7.61572 38.4089 9.49076C38.6594 9.65734 38.875 9.8104 38.8879 9.83094C38.9009 9.85148 38.7185 10.1189 38.4826 10.4251C35.385 14.4463 33.5792 19.1781 33.2194 24.2161C33.1502 25.1847 33.1885 27.7673 33.2846 28.6068C33.4947 30.4442 33.8347 32.0628 34.3527 33.6915C35.2308 36.4522 36.6837 39.2295 38.4503 41.5244C38.806 41.9865 38.9023 42.1396 38.8651 42.1836C38.8383 42.2151 38.5923 42.387 38.3183 42.5656C34.0947 45.3186 29.1194 46.4829 24.1591 45.8792C18.5532 45.1969 13.4818 42.2998 10.1115 37.8545C8.83338 36.1686 7.8588 34.3345 7.16944 32.3174C6.49736 30.351 6.18149 28.5532 6.13515 26.4309C6.1089 25.2273 6.15257 24.4133 6.30197 23.3193C7.32547 15.8265 12.6781 9.49054 20.0536 7.04123C21.8539 6.44333 23.4525 6.14031 25.6474 5.9809C26.1385 5.94526 28.2195 5.99961 28.8239 6.06385ZM61.9436 6.06402C65.0419 6.37892 67.8614 7.28297 70.4957 8.80616C71.0304 9.11532 72.095 9.81501 72.095 9.85727C72.095 9.87076 72.019 9.97264 71.926 10.0837C71.3662 10.7522 70.4265 12.115 69.8513 13.0925C67.886 16.4319 66.7655 19.98 66.4015 24.0156C66.3211 24.9071 66.3348 27.2717 66.4258 28.2152C66.7514 31.5904 67.5645 34.4333 69.0518 37.3976C69.8171 38.9227 70.645 40.2497 71.6427 41.5502C71.8891 41.8715 72.0802 42.1512 72.0672 42.1718C72.0234 42.2411 70.6557 43.1076 70.1403 43.3926C67.6196 44.786 64.9701 45.6115 61.988 45.9321C60.9997 46.0384 58.7974 46.0399 57.8342 45.9349C54.3173 45.5515 51.3238 44.5036 48.4708 42.657L47.704 42.1607L48.097 41.6504C51.0985 37.7538 52.8554 33.3483 53.3767 28.411C53.4728 27.5012 53.4878 24.6791 53.4012 23.8198C53.1739 21.5659 52.7912 19.739 52.1499 17.846C51.2686 15.245 49.8354 12.5813 48.1532 10.4177C47.9678 10.1793 47.7916 9.95157 47.7618 9.91167C47.7143 9.84822 47.7727 9.7956 48.2283 9.49163C51.3797 7.38868 54.9539 6.21346 58.9004 5.98247C59.4725 5.94896 61.2911 5.99774 61.9436 6.06402ZM94.2415 5.99927C98.091 6.23479 101.542 7.37388 104.694 9.44898C105.098 9.71496 105.272 9.85335 105.245 9.88751C103.964 11.5219 103.174 12.7327 102.348 14.3328C100.524 17.8624 99.6103 21.4562 99.5202 25.4517C99.3893 31.2649 101.266 36.9495 104.851 41.5971C105.082 41.8963 105.264 42.1534 105.255 42.1683C105.228 42.2129 104.002 43.0012 103.589 43.2391C101.038 44.7084 98.246 45.5998 95.1522 45.9331C94.2837 46.0266 92.0646 46.0397 91.2205 45.9563C88.5482 45.6922 86.2442 45.0574 83.9346 43.9489C82.6753 43.3445 80.8466 42.2256 80.9222 42.1057C80.9401 42.0773 81.1443 41.8093 81.3759 41.5101C82.8252 39.6376 84.1491 37.2616 85.013 34.9823C85.9097 32.6164 86.411 30.2944 86.6197 27.5406C86.6688 26.8912 86.6442 24.5841 86.5806 23.8851C86.1261 18.8908 84.3658 14.3648 81.3592 10.4601L80.8905 9.85139L80.9909 9.7748C81.0461 9.73267 81.3412 9.5344 81.6466 9.33418C85.2938 6.94353 89.8702 5.73176 94.2415 5.99927ZM128.361 6.06324C131.742 6.41539 134.852 7.49547 137.624 9.28078C141.492 11.7721 144.349 15.3945 145.828 19.6823C146.522 21.695 146.865 23.7741 146.864 25.9701C146.864 28.6086 146.414 30.9287 145.422 33.4156C145.164 34.0613 144.381 35.5932 143.958 36.2801C140.69 41.5777 135.138 45.1008 128.827 45.8801C124.351 46.433 119.72 45.4953 115.771 43.2367C115.181 42.8992 114.145 42.2341 114.101 42.1644C114.089 42.1453 114.294 41.848 114.556 41.504C116.893 38.4387 118.496 34.9546 119.297 31.1962C119.94 28.1837 120.003 24.7802 119.473 21.6874C118.788 17.6883 117.117 13.8551 114.634 10.5908C114.328 10.1884 114.078 9.85318 114.078 9.84595C114.078 9.8117 114.968 9.23343 115.544 8.89346C116.3 8.44727 117.829 7.70236 118.587 7.41105C120.6 6.63755 122.719 6.16176 124.873 5.99992C125.599 5.94543 127.574 5.98129 128.361 6.06324ZM43.7804 14.7382C45.8326 17.6351 47.0357 21.0156 47.3094 24.6548C47.3736 25.5081 47.3366 27.3383 47.2387 28.1499C46.8397 31.4587 45.762 34.3501 43.9133 37.0712C43.7425 37.3225 43.5378 37.6122 43.4583 37.7149L43.3138 37.9016L43.0267 37.4973C42.3363 36.5247 41.9362 35.8677 41.4279 34.8714C40.2847 32.6309 39.6174 30.3334 39.3745 27.8017C39.3035 27.0616 39.2748 25.2361 39.3259 24.7119C39.3388 24.5803 39.3608 24.3355 39.3748 24.1679C39.6148 21.3011 40.6786 18.1562 42.2564 15.649C42.7485 14.867 43.2731 14.1344 43.329 14.1508C43.3535 14.158 43.5565 14.4223 43.7804 14.7382ZM76.9512 14.7276C80.7957 20.2157 81.5914 27.1313 79.0937 33.3503C78.7963 34.0906 78.1258 35.424 77.7039 36.1138C77.2733 36.8177 76.5803 37.8198 76.5081 37.8428C76.4796 37.8519 76.2829 37.6128 76.0709 37.3115C74.7151 35.3843 73.7009 33.2185 73.1158 31.0003C71.8954 26.3742 72.3951 21.5388 74.5368 17.2485C75.1199 16.0805 76.3769 14.1062 76.5099 14.1496C76.5359 14.1581 76.7344 14.4182 76.9512 14.7276ZM110.202 14.8441C110.789 15.696 111.227 16.4313 111.633 17.2485C113.797 21.598 114.282 26.5178 113.005 31.1711C112.385 33.4297 111.309 35.662 109.935 37.5401L109.672 37.9002L109.594 37.8012C109.06 37.1197 108.277 35.8567 107.766 34.8517C106.7 32.7523 106.061 30.6393 105.763 28.2227C105.63 27.1463 105.619 24.9995 105.741 23.9503C106.077 21.0524 106.928 18.4807 108.348 16.0712C108.837 15.241 109.596 14.1369 109.678 14.1369C109.698 14.1369 109.934 14.4552 110.202 14.8441Z" fill="#636262"/>
</svg>
